<svg xmlns="http://www.w3.org/2000/svg" viewBox="0 0 512 512" width="512" height="512">
  <defs>
    <linearGradient id="bgGrad" x1="0%" y1="0%" x2="100%" y2="100%">
      <stop offset="0%" style="stop-color:#66BB6A;stop-opacity:1" />
      <stop offset="100%" style="stop-color:#4CAF50;stop-opacity:1" />
    </linearGradient>
    <linearGradient id="faceGrad" x1="0%" y1="0%" x2="0%" y2="100%">
      <stop offset="0%" style="stop-color:#FFFFFF;stop-opacity:1" />
      <stop offset="100%" style="stop-color:#FAFAFA;stop-opacity:1" />
    </linearGradient>
    <filter id="shadow">
      <feDropShadow dx="2" dy="4" stdDeviation="4" flood-opacity="0.2"/>
    </filter>
  </defs>
  
  <circle cx="256" cy="256" r="240" fill="url(#bgGrad)"/>
  
  <circle cx="100" cy="80" r="12" fill="#FFD54F" opacity="0.8"/>
  <circle cx="420" cy="120" r="8" fill="#FFD54F" opacity="0.6"/>
  <circle cx="410" cy="410" r="7" fill="#FFD54F" opacity="0.7"/>
  <circle cx="110" cy="420" r="6" fill="#FFD54F" opacity="0.5"/>
  
  <g filter="url(#shadow)">
    <circle cx="256" cy="260" r="150" fill="#8D6E63"/>
  </g>
  
  <circle cx="180" cy="200" r="28" fill="#8D6E63"/>
  <circle cx="332" cy="200" r="28" fill="#8D6E63"/>
  <circle cx="180" cy="205" r="16" fill="#FFAB91"/>
  <circle cx="332" cy="205" r="16" fill="#FFAB91"/>
  
  <g filter="url(#shadow)">
    <circle cx="256" cy="280" r="110" fill="url(#faceGrad)" stroke="#FFB74D" stroke-width="4"/>
  </g>
  
  <g stroke="#FFB74D" stroke-width="3" stroke-linecap="round">
    <line x1="256" y1="180" x2="256" y2="192"/>
    <line x1="256" y1="380" x2="256" y2="368"/>
    <line x1="156" y1="280" x2="168" y2="280"/>
    <line x1="356" y1="280" x2="344" y2="280"/>
  </g>
  
  <g fill="#FFCC80">
    <circle cx="256" cy="185" r="3"/>
    <circle cx="285" cy="195" r="2.5"/>
    <circle cx="308" cy="220" r="2.5"/>
    <circle cx="318" cy="255" r="2.5"/>
    <circle cx="318" cy="305" r="2.5"/>
    <circle cx="308" cy="340" r="2.5"/>
    <circle cx="285" cy="365" r="2.5"/>
    <circle cx="256" cy="375" r="3"/>
    <circle cx="227" cy="365" r="2.5"/>
    <circle cx="204" cy="340" r="2.5"/>
    <circle cx="194" cy="305" r="2.5"/>
    <circle cx="194" cy="255" r="2.5"/>
    <circle cx="204" cy="220" r="2.5"/>
    <circle cx="227" cy="195" r="2.5"/>
  </g>
  
  <line x1="256" y1="280" x2="256" y2="225" stroke="#5D4037" stroke-width="6" stroke-linecap="round"/>
  <line x1="256" y1="280" x2="300" y2="280" stroke="#78909C" stroke-width="4" stroke-linecap="round"/>
  
  <circle cx="256" cy="280" r="10" fill="#FFB74D"/>
  <circle cx="256" cy="280" r="5" fill="#FFFFFF"/>
  
  <ellipse cx="198" cy="245" rx="10" ry="6" fill="#FFCDD2" opacity="0.6"/>
  <ellipse cx="314" cy="245" rx="10" ry="6" fill="#FFCDD2" opacity="0.6"/>
  
  <circle cx="256" cy="400" r="22" fill="#8D6E63"/>
  <circle cx="200" cy="405" r="18" fill="#8D6E63"/>
  <circle cx="312" cy="405" r="18" fill="#8D6E63"/>
</svg>